<?xml version="1.0"?>
<svg xmlns="http://www.w3.org/2000/svg" id="Layer_3" enable-background="new 0 0 64 64" height="512px" viewBox="0 0 64 64" width="512px" class=""><g><path d="m5 11h2v2h-2z" data-original="#000000" class="active-path" data-old_color="#000000" fill="#FFFFFF"/><path d="m9 11h26v2h-26z" data-original="#000000" class="active-path" data-old_color="#000000" fill="#FFFFFF"/><path d="m11 29h2v2h-2v8h2v2h-2v8h24v-8h-2v-2h2v-8h-2v-2h2v-8h-24zm22 18h-20v-4h20zm-2-6h-16v-2h16zm2-4h-20v-4h20zm-2-6h-16v-2h16zm-18-8h20v4h-20z" data-original="#000000" class="active-path" data-old_color="#000000" fill="#FFFFFF"/><path d="m63 13v-12h-10v5h-3c-2.757 0-5 2.243-5 5v20h-6v-19c0-2.757-2.243-5-5-5h-28c-2.757 0-5 2.243-5 5v38c0 2.757 2.243 5 5 5h28c2.757 0 5-2.243 5-5v-17h6v20c0 2.757 2.243 5 5 5h3v5h10v-12h-10v5h-3c-1.654 0-3-1.346-3-3v-11h6v5h10v-12h-10v5h-6v-17h6v6h10v-12h-10v4h-6v-10c0-1.654 1.346-3 3-3h3v5zm-60 37v-34.002c.836.628 1.875 1.002 3 1.002h1v36h-1c-1.654 0-3-1.346-3-3zm34 0c0 1.654-1.346 3-3 3h-25v-36h25c1.654 0 3 1.346 3 3zm0-33.998c-.836-.628-1.875-1.002-3-1.002h-28c-1.654 0-3-1.346-3-3s1.346-3 3-3h28c1.654 0 3 1.346 3 3zm18 36.998h6v8h-6zm0-16h6v8h-6zm0-18h6v8h-6zm0-16h6v8h-6z" data-original="#000000" class="active-path" data-old_color="#000000" fill="#FFFFFF"/></g> </svg>
